<mxfile host="app.diagrams.net" modified="2024-03-25T12:44:23.054Z" agent="Mozilla/5.0 (Windows NT 10.0; Win64; x64) AppleWebKit/537.36 (KHTML, like Gecko) Chrome/122.0.0.0 Safari/537.36" version="23.1.4" etag="6tgC5RORmeJ9aq7EEgHx" type="github">
  <diagram name="Page-1" id="5km9eXXlXAP9FyU-ZK16">
    <mxGraphModel>
      <root>
        <mxCell id="0" />
        <mxCell id="1" parent="0" />
      </root>
    </mxGraphModel>
  </diagram>
</mxfile>
